<svg width="910" height="550" viewBox="0 0 910 550" fill="none" xmlns="http://www.w3.org/2000/svg">
<g clip-path="url(#clip0_2139_2)">
<rect width="910" height="550" fill="#000014"/>
<path fill-rule="evenodd" clip-rule="evenodd" d="M452.985 162.823V142L140.08 386.246L452.985 162.823Z" fill="url(#paint0_linear_2139_2)"/>
<path fill-rule="evenodd" clip-rule="evenodd" d="M142.078 182.48C138.978 180.008 136.984 176.155 136.984 171.827C136.984 164.368 142.906 158.321 150.21 158.321C152.857 158.321 155.323 159.115 157.391 160.483L157.526 160.29L455.235 387.934L768.14 164.511L455.235 408.757L142.049 182.52L142.078 182.48Z" fill="url(#paint1_linear_2139_2)"/>
<path fill-rule="evenodd" clip-rule="evenodd" d="M455.235 387.934V408.757L768.14 164.511L455.235 387.934Z" fill="url(#paint2_linear_2139_2)"/>
<path fill-rule="evenodd" clip-rule="evenodd" d="M771.235 378.93C771.235 374.602 769.242 370.749 766.142 368.277L766.17 368.237L452.984 142V162.823L750.694 390.466L750.828 390.273C752.897 391.642 755.362 392.436 758.01 392.436C765.314 392.436 771.235 386.389 771.235 378.93Z" fill="url(#paint3_linear_2139_2)"/>
<g filter="url(#filter0_f_2139_2)">
<path fill-rule="evenodd" clip-rule="evenodd" d="M778.628 245.551H803.45L822.997 294.401L842.09 245.551H866.787L820.813 363.172H796.116L810.731 325.782L778.628 245.551ZM788.604 252.304L817.993 325.752L806.007 356.419H816.202L856.897 252.305H846.702L823.07 312.763L798.878 252.304H788.604Z" fill="#05FF00"/>
<path fill-rule="evenodd" clip-rule="evenodd" d="M43 218.538H135.296V296.202H67.1995V329.405H43V218.538ZM49.7533 225.292V322.652H60.4461V289.448H128.542V225.292H49.7533ZM60.4461 231.482H117.849V283.258H60.4461V231.482ZM67.1995 238.235V276.504H111.096V238.235H67.1995Z" fill="#05FF00"/>
<path fill-rule="evenodd" clip-rule="evenodd" d="M222.526 245.551H308.069V296.201H246.726V309.708H283.869V297.327H308.069V329.405H222.526V245.551ZM229.28 252.304V322.652H301.315V304.08H290.623V316.461H239.972V289.448H301.315V252.304H229.28ZM239.972 258.495H290.623V283.257H239.972V258.495ZM246.726 265.248V276.504H283.869V265.248H246.726Z" fill="#05FF00"/>
<path fill-rule="evenodd" clip-rule="evenodd" d="M145.426 245.551H169.625V253.166L176.578 245.551H214.647V265.248H179.556L169.625 276.125V329.405H145.426V245.551ZM152.179 252.304V322.652H162.872V273.506L176.578 258.495H207.894V252.304H179.556L162.872 270.578V252.304H152.179Z" fill="#05FF00"/>
<path fill-rule="evenodd" clip-rule="evenodd" d="M470.711 245.551H555.69V329.405H470.711V245.551ZM477.464 252.304V322.652H548.937V252.304H477.464ZM488.157 258.495H538.244V316.461H488.157V258.495ZM494.91 265.248V309.708H531.491V265.248H494.91Z" fill="#05FF00"/>
<path fill-rule="evenodd" clip-rule="evenodd" d="M687.943 245.551H772.36V329.405H687.943V278.755H748.161V265.248H687.943V245.551ZM694.697 252.304V258.495H754.914V285.508H694.697V322.652H765.607V252.304H694.697ZM705.389 291.699H754.914V316.461H705.389V291.699ZM712.143 298.452V309.708H748.161V298.452H712.143Z" fill="#05FF00"/>
<path fill-rule="evenodd" clip-rule="evenodd" d="M319.324 245.551H398.676V329.405H319.324V297.327H343.524V309.708H374.476V296.201H319.324V245.551ZM374.476 276.504V265.248H343.524V276.504H374.476ZM326.078 252.304V289.448H381.23V316.461H336.77V304.08H326.078V322.652H391.923V283.257H336.77V258.495H381.23V270.876H391.923V252.304H326.078Z" fill="#05FF00"/>
<path fill-rule="evenodd" clip-rule="evenodd" d="M418.936 233.17H443.135V245.551H462.832V265.248H443.135V309.145H462.832V329.405H418.936V265.248H406.555V245.551H418.936V233.17ZM425.689 239.923V252.304H413.308V258.495H425.689V322.652H456.079V315.898H436.382V258.495H456.079V252.304H436.382V239.923H425.689Z" fill="#05FF00"/>
<path fill-rule="evenodd" clip-rule="evenodd" d="M584.393 218.538H676.688V293.387H658.018L680.53 329.404H655.119L632.608 293.387H608.592V329.405H584.393V218.538ZM591.146 225.291V322.652H601.839V286.634H636.351L658.862 322.651H668.345L645.834 286.634H669.935V225.291H591.146ZM601.839 231.482H659.242V280.443H601.839V231.482ZM608.592 238.235V273.69H652.489V238.235H608.592Z" fill="#05FF00"/>
</g>
<g filter="url(#filter1_f_2139_2)">
<path fill-rule="evenodd" clip-rule="evenodd" d="M780.29 246.677H802.687L823.008 297.461L842.858 246.677H865.138L820.044 362.047H797.764L811.941 325.777L780.29 246.677ZM786.941 251.179L816.782 325.757L804.358 357.544H816.97L858.545 251.179H845.933L823.058 309.703L799.64 251.179H786.941Z" fill="#05FF00"/>
<path fill-rule="evenodd" clip-rule="evenodd" d="M44.126 219.664H134.17V295.076H66.0743V328.28H44.126V219.664ZM48.6282 224.166V323.778H61.5721V290.574H129.668V224.166H48.6282ZM61.5721 232.608H116.724V282.132H61.5721V232.608ZM66.0743 237.11V277.63H112.222V237.11H66.0743Z" fill="#05FF00"/>
<path fill-rule="evenodd" clip-rule="evenodd" d="M223.651 246.677H306.943V295.076H245.6V310.834H284.994V298.452H306.943V328.28H223.651V246.677ZM228.154 251.179V323.777H302.44V302.955H289.496V315.336H241.097V290.574H302.44V251.179H228.154ZM241.097 259.621H289.496V282.132H241.097V259.621ZM245.6 264.123V277.63H284.994V264.123H245.6Z" fill="#05FF00"/>
<path fill-rule="evenodd" clip-rule="evenodd" d="M146.551 246.677H168.499V256.068L177.073 246.677H213.521V264.123H179.059L168.499 275.689V328.28H146.551V246.677ZM151.053 251.179V323.777H163.997V273.943L177.073 259.621H209.019V251.179H179.059L163.997 267.676V251.179H151.053Z" fill="#05FF00"/>
<path fill-rule="evenodd" clip-rule="evenodd" d="M471.837 246.677H554.565V328.28H471.837V246.677ZM476.339 251.179V323.777H550.063V251.179H476.339ZM489.283 259.621H537.119V315.336H489.283V259.621ZM493.785 264.123V310.834H532.617V264.123H493.785Z" fill="#05FF00"/>
<path fill-rule="evenodd" clip-rule="evenodd" d="M689.069 246.677H771.235V328.28H689.069V279.881H749.287V264.123H689.069V246.677ZM693.572 251.179V259.621H753.789V284.383H693.572V323.777H766.733V251.179H693.572ZM706.515 292.825H753.789V315.336H706.515V292.825ZM711.018 297.327V310.834H749.287V297.327H711.018Z" fill="#05FF00"/>
<path fill-rule="evenodd" clip-rule="evenodd" d="M320.449 246.677H397.55V276.504H375.601V264.123H342.398V277.63H397.55V328.28H320.449V298.452H342.398V310.834H375.601V295.076H320.449V246.677ZM324.951 251.179V290.574H380.104V315.336H337.895V302.955H324.951V323.777H393.048V282.132H337.895V259.621H380.104V272.002H393.048V251.179H324.951Z" fill="#05FF00"/>
<path fill-rule="evenodd" clip-rule="evenodd" d="M420.061 234.296H442.009V246.677H461.706V264.123H442.009V310.271H461.706V328.28H420.061V264.123H407.68V246.677H420.061V234.296ZM424.563 238.798V251.179H412.182V259.621H424.563V323.777H457.204V314.773H437.507V259.621H457.204V251.179H437.507V238.798H424.563Z" fill="#05FF00"/>
<path fill-rule="evenodd" clip-rule="evenodd" d="M585.518 219.664H675.562V292.262H655.987L678.498 328.279H655.743L633.232 292.262H607.466V328.28H585.518V219.664ZM590.02 224.166V323.778H602.964V287.76H635.727L658.238 323.777H670.375L647.864 287.76H671.06V224.166H590.02ZM602.964 232.607H658.116V279.318H602.964V232.607ZM607.466 237.11V274.816H653.614V237.11H607.466Z" fill="#05FF00"/>
</g>
<g filter="url(#filter2_f_2139_2)">
<path fill-rule="evenodd" clip-rule="evenodd" d="M781.953 247.802H801.926L823.021 300.521L843.627 247.802H863.49L819.276 360.921H799.413L813.152 325.772L781.953 247.802ZM785.279 250.053L815.572 325.762L802.71 358.67H817.739L860.194 250.053H845.164L823.046 306.642L800.402 250.053H785.279Z" fill="#4BFF47"/>
<path fill-rule="evenodd" clip-rule="evenodd" d="M45.251 220.789H133.044V293.95H64.9482V327.154H45.251V220.789ZM47.5021 223.04V324.903H62.6971V291.699H130.793V223.04H47.5021ZM62.6971 233.733H115.598V281.006H62.6971V233.733ZM64.9482 235.984V278.755H113.347V235.984H64.9482Z" fill="#4BFF47"/>
<path fill-rule="evenodd" clip-rule="evenodd" d="M224.777 247.802H305.817V293.95H244.475V311.959H286.12V299.578H305.817V327.154H224.777V247.802ZM227.028 250.053V324.903H303.566V301.829H288.371V314.21H242.223V291.699H303.566V250.053H227.028ZM242.223 260.746H288.371V281.006H242.223V260.746ZM244.475 262.997V278.755H286.12V262.997H244.475Z" fill="#4BFF47"/>
<path fill-rule="evenodd" clip-rule="evenodd" d="M147.677 247.802H167.374V258.97L177.57 247.802H212.396V262.997H178.563L167.374 275.252V327.154H147.677V247.802ZM149.928 250.053V324.903H165.123V274.379L177.57 260.746H210.145V250.053H178.563L165.123 264.774V250.053H149.928Z" fill="#4BFF47"/>
<path fill-rule="evenodd" clip-rule="evenodd" d="M472.963 247.802H553.44V327.154H472.963V247.802ZM475.214 250.053V324.903H551.189V250.053H475.214ZM490.409 260.746H535.994V314.21H490.409V260.746ZM492.66 262.997V311.959H533.743V262.997H492.66Z" fill="#4BFF47"/>
<path fill-rule="evenodd" clip-rule="evenodd" d="M690.194 247.802H770.109V327.154H690.194V281.006H750.412V262.997H690.194V247.802ZM692.445 250.053V260.746H752.663V283.257H692.445V324.903H767.858V250.053H692.445ZM707.64 293.95H752.663V314.21H707.64V293.95ZM709.892 296.201V311.959H750.412V296.201H709.892Z" fill="#4BFF47"/>
<path fill-rule="evenodd" clip-rule="evenodd" d="M321.575 247.802H396.425V275.378H376.727V262.997H341.272V278.755H396.425V327.154H321.575V299.578H341.272V311.959H376.727V293.95H321.575V247.802ZM323.826 250.053V291.699H378.979V314.21H339.021V301.829H323.826V324.903H394.174V281.006H339.021V260.746H378.979V273.127H394.174V250.053H323.826Z" fill="#4BFF47"/>
<path fill-rule="evenodd" clip-rule="evenodd" d="M421.187 235.421H440.884V247.802H460.581V262.997H440.884V311.396H460.581V327.154H421.187V262.997H408.806V247.802H421.187V235.421ZM423.438 237.672V250.053H411.057V260.746H423.438V324.903H458.33V313.647H438.633V260.746H458.33V250.053H438.633V237.672H423.438Z" fill="#4BFF47"/>
<path fill-rule="evenodd" clip-rule="evenodd" d="M586.644 220.789H674.437V291.136H653.957L676.468 327.153H656.367L633.856 291.136H606.341V327.154H586.644V220.789ZM588.895 223.04V324.903H604.09V288.885H635.104L657.615 324.902H672.406L649.895 288.885H672.186V223.04H588.895ZM604.09 233.733H656.991V278.192H604.09V233.733ZM606.341 235.984V275.941H654.74V235.984H606.341Z" fill="#4BFF47"/>
</g>
<path fill-rule="evenodd" clip-rule="evenodd" d="M782.369 248.084H801.736L823.025 301.287L843.82 248.084H863.079L819.084 360.64H799.825L813.455 325.771L782.369 248.084ZM784.863 249.772L815.27 325.763L802.298 358.951H817.932L860.606 249.772H844.973L823.043 305.877L800.593 249.772H784.863Z" fill="#EEFFEE"/>
<path fill-rule="evenodd" clip-rule="evenodd" d="M45.5322 221.071H132.763V293.67H64.6667V326.873H45.5322V221.071ZM47.2206 222.76V325.185H62.9783V291.981H131.074V222.76H47.2206ZM62.9783 234.015H115.317V280.726H62.9783V234.015ZM64.6667 235.703V279.037H113.628V235.703H64.6667Z" fill="#EEFFEE"/>
<path fill-rule="evenodd" clip-rule="evenodd" d="M225.059 248.084H305.536V293.669H244.193V312.24H286.401V299.859H305.536V326.873H225.059V248.084ZM226.747 249.772V325.184H303.848V301.548H288.09V313.929H242.505V291.98H303.848V249.772H226.747ZM242.505 261.028H288.09V280.725H242.505V261.028ZM244.193 262.716V279.037H286.401V262.716H244.193Z" fill="#EEFFEE"/>
<path fill-rule="evenodd" clip-rule="evenodd" d="M147.958 248.084H167.092V259.695L177.694 248.084H212.115V262.716H178.439L167.092 275.143V326.873H147.958V248.084ZM149.646 249.772V325.184H165.404V274.488L177.694 261.028H210.426V249.772H178.439L165.404 264.048V249.772H149.646Z" fill="#EEFFEE"/>
<path fill-rule="evenodd" clip-rule="evenodd" d="M473.244 248.084H553.159V326.873H473.244V248.084ZM474.932 249.772V325.184H551.47V249.772H474.932ZM490.69 261.028H535.713V313.929H490.69V261.028ZM492.379 262.716V312.24H534.024V262.716H492.379Z" fill="#EEFFEE"/>
<path fill-rule="evenodd" clip-rule="evenodd" d="M690.477 248.084H769.828V326.873H690.477V281.288H750.694V262.716H690.477V248.084ZM692.165 249.772V261.028H752.382V282.976H692.165V325.184H768.14V249.772H692.165ZM707.923 294.232H752.382V313.929H707.923V294.232ZM709.611 295.92V312.24H750.694V295.92H709.611Z" fill="#EEFFEE"/>
<path fill-rule="evenodd" clip-rule="evenodd" d="M321.856 248.084H396.143V275.097H377.009V262.716H340.991V279.037H396.143V326.873H321.856V299.859H340.991V312.24H377.009V293.669H321.856V248.084ZM323.545 249.772V291.98H378.697V313.929H339.303V301.548H323.545V325.184H394.455V280.725H339.303V261.028H378.697V273.409H394.455V249.772H323.545Z" fill="#EEFFEE"/>
<path fill-rule="evenodd" clip-rule="evenodd" d="M421.468 235.703H440.602V248.084H460.3V262.716H440.602V311.678H460.3V326.873H421.468V262.716H409.087V248.084H421.468V235.703ZM423.156 237.391V249.772H410.775V261.028H423.156V325.184H458.611V313.366H438.914V261.028H458.611V249.772H438.914V237.391H423.156Z" fill="#EEFFEE"/>
<path fill-rule="evenodd" clip-rule="evenodd" d="M586.925 221.07H674.155V290.855H653.449L675.96 326.872H656.523L634.012 290.855H606.059V326.873H586.925V221.07ZM588.613 222.759V325.184H604.371V289.166H634.947L657.459 325.183H672.914L650.403 289.166H672.467V222.759H588.613ZM604.371 234.014H656.709V277.911H604.371V234.014ZM606.059 235.703V276.223H655.021V235.703H606.059Z" fill="#EEFFEE"/>
<g clip-path="url(#clip1_2139_2)">
<path d="M493.725 517.055L486.899 518.768C484.063 522.76 479.981 525.693 475.296 527.105C470.611 528.516 465.589 528.326 461.024 526.564L464.698 522.773C469.055 523.885 473.673 523.252 477.572 521.009C481.471 518.766 484.342 515.089 485.576 510.76L494.929 513.811C494.595 514.915 494.194 515.998 493.725 517.052V517.055ZM500.847 508.117C500.891 507.413 500.915 506.708 500.917 506.004C500.917 503.893 500.709 501.788 500.298 499.718L495.801 502.22C495.979 503.478 496.069 504.747 496.069 506.018C496.069 506.592 496.048 507.159 496.012 507.723L486.224 506.863C486.224 506.578 486.245 506.289 486.245 506C486.247 502.234 485.016 498.57 482.74 495.572L482.297 495.924C483.384 497.368 484.23 498.979 484.802 500.694L484.306 500.958C484.842 502.59 485.115 504.297 485.116 506.014C485.116 506.271 485.116 506.528 485.094 506.782L477.04 506.06C477.034 506.674 476.959 507.285 476.815 507.881L484.5 510.411C483.538 513.8 481.499 516.784 478.693 518.909C475.886 521.034 472.463 522.185 468.944 522.188C467.817 522.19 466.693 522.072 465.591 521.836L470.436 516.837L458.998 515.466L458.139 504.63L448.562 514.293C446.739 509.794 446.45 504.818 447.74 500.138C449.03 495.458 451.827 491.335 455.697 488.409L456.33 485.943C460.107 483.546 464.487 482.275 468.958 482.279C469.514 482.279 470.063 482.3 470.609 482.339L472.287 485.158C474.812 485.561 477.241 486.424 479.454 487.705L480.397 486.813C478.089 485.424 475.547 484.469 472.896 483.995L471.2 481.138C470.449 481.077 469.702 481.046 468.958 481.046C464.689 481.035 460.488 482.127 456.763 484.217L457.467 481.398C461.059 479.714 464.978 478.843 468.944 478.848C469.778 478.848 470.602 478.89 471.407 478.964L473.905 474.384C472.269 474.13 470.615 474.002 468.958 474C463.295 474.002 457.733 475.511 452.843 478.372C447.953 481.233 443.909 485.343 441.126 490.282C438.343 495.222 436.921 500.813 437.004 506.483C437.088 512.153 438.675 517.7 441.602 522.555L438.284 536.964L452.97 533.712C457.138 536.121 461.795 537.557 466.594 537.913C471.393 538.268 476.21 537.535 480.687 535.766C485.163 533.998 489.183 531.241 492.447 527.701C495.711 524.16 498.135 519.928 499.538 515.319L501.786 516.055C502.551 513.534 503.023 510.933 503.194 508.304L500.84 508.103L500.847 508.117Z" fill="white"/>
<path d="M654.498 511.665H623.658V494.98H643.467L654.498 503.788V511.676V511.665ZM610.463 524.866H592.378L584.349 517.091V514.903H610.463V524.866ZM620.414 491.749V511.672H613.707V504.943H552.759V498.094H549.526V524.87H513.479V508.174H542.95V504.943H513.479V498.094H510.245V528.1H552.759V517.827L562.784 508.174H610.463V511.658H581.126V528.093H613.707V514.903H620.424V528.1H623.658V514.903H657.728V491.742L620.414 491.749Z" fill="white"/>
<path d="M680.411 477.424H669.638V536.196H680.411V477.424Z" fill="white"/>
<path d="M688.782 481.508V479.239H698.075V477.424H702.603V479.239H711.892V481.508H702.603V482.867H710.984V492.38H705.354L711.885 497.368V501.917L702.596 494.849V501.917H698.075V494.849L688.786 501.917V497.382L695.32 492.394H689.69V482.882H698.075V481.508H688.782ZM694.204 490.125H698.075V488.765H694.204V490.125ZM706.438 490.125V488.765H702.599V490.125H706.438ZM694.204 485.136V486.496H698.075V485.136H694.204ZM706.438 485.136H702.599V486.496H706.452L706.438 485.136Z" fill="white"/>
<path d="M714.907 481.959V479.693H723.76V477.424H728.288V479.693H737.123V481.959H714.907ZM716.265 492.394V482.882H735.747V492.394H728.271V497.837C728.271 500.557 727.063 501.917 724.646 501.917H721.701V499.651C723.062 499.651 723.742 499.047 723.742 497.837V492.394H716.265ZM720.797 490.125H731.216V485.136H720.797V490.125ZM714.464 501.917L717.631 493.299H722.159L718.992 501.917H714.464ZM737.57 501.917H733.028L729.861 493.299H734.386L737.552 501.917H737.57Z" fill="white"/>
<path d="M741.032 480.144V477.875H762.322V480.141H753.941V499.652H763.23V501.917H740.124V499.652H749.413V480.144H741.032Z" fill="white"/>
<path d="M765.795 501.917V498.288L773.571 494.208H765.795V491.94H775.084V491.263H767.153V488.991H775.084V488.311H766.249V486.042H769.873L768.969 483.322H766.249V481.046H768.061L767.153 477.417H771.46L772.364 481.046H772.818V477.425H777.121V481.046H777.593V477.425H781.896V481.046H782.35L783.222 477.425H787.525L786.635 481.046H788.447V483.315H785.727L784.823 486.035H788.447V488.304H779.612V488.984H787.539V491.263H779.612V491.943H788.901V494.212H781.111L788.89 498.292V501.92L779.612 497.041V501.917H775.084V497.041L765.795 501.917ZM780.055 486.042L780.96 483.322H773.722L774.63 486.042H780.055Z" fill="white"/>
<path d="M791.466 484.682V482.413H800.037L802.338 477.424H807.32L805.037 482.413H814.586V484.682H805.526L815.026 501.917H809.819L802.303 488.311L796.001 501.917H791.016L798.982 484.682H791.466Z" fill="white"/>
<path d="M817.591 487.388V481.508H839.79V487.388H835.258V486.722L832.091 491.485H840.244V493.754H831.637V497.383C831.637 500.405 830.429 501.917 828.013 501.917H824.847V499.652C826.355 499.652 827.109 498.895 827.109 497.383V493.754H817.145V491.485H827.109L829.22 488.314H820.308V487.388H817.591ZM818.95 481.046L817.591 477.417H821.666L823.027 481.046H818.95ZM827.102 481.046L825.744 477.417H829.822L831.18 481.046H827.102ZM838.428 481.046H834.354L835.712 477.417H839.79L838.428 481.046ZM835.261 483.766H822.123V486.035H835.261V483.766Z" fill="white"/>
<path d="M696.561 534.149H689.313V531.88H693.391C695.202 531.88 696.107 531.124 696.107 529.611V519.634H688.405V517.365H704.714V519.634H700.639V529.611C700.639 532.639 699.28 534.152 696.561 534.149ZM689.767 512.831V510.562H703.352V512.831H689.767ZM705.055 515.65L703.243 513.684L705.055 511.683L706.867 513.684L705.055 515.65ZM708.753 515.65L706.941 513.684L708.753 511.683L710.565 513.684L708.753 515.65Z" fill="white"/>
<path d="M723.777 534.149H713.358V531.88H720.395C722.359 531.88 723.34 531.124 723.34 529.611V514.191H727.869V529.611C727.869 532.639 726.509 534.152 723.791 534.149H723.777ZM712.454 512.831V510.562H720.153V512.831H712.454ZM712.454 519.173V516.911H720.153V519.18L712.454 519.173ZM725.167 513.247L723.354 511.281L725.167 509.276L726.979 511.281L725.167 513.247ZM728.868 513.247L727.056 511.281L728.868 509.276L730.68 511.281L728.868 513.247Z" fill="white"/>
<path d="M736.123 534.149V531.88H738.389C740.202 531.88 741.108 530.974 741.106 529.161V520.089H736.123C736.123 522.808 734.613 524.168 731.592 524.168H729.329V521.914H729.779C730.99 521.914 731.592 521.308 731.592 520.099V509.653H736.123V511.922H745.623V529.161C745.623 532.486 744.415 534.149 741.999 534.149H736.123ZM741.106 514.191H736.123V517.82H741.106V514.191Z" fill="white"/>
<path d="M747.449 534.149L749.261 511.468H753.79L751.978 534.149H747.449ZM754.697 534.149V509.653H759.226V531.88H759.68C760.886 531.88 761.492 531.126 761.492 529.611V524.623H766.023V529.611C766.023 532.639 764.664 534.152 761.946 534.149H754.697Z" fill="white"/>
<path d="M768.213 516.005V512.377L774.778 509.653L781.348 512.377V516.005L777.044 514.244V516.005H780.894V524.461H773.153V525.084H780.894V534.156H770.479V532.342H768.213L769.117 516.012H772.516V514.251L768.213 516.012V516.005ZM781.815 528.255V511.922H785.893V528.255H781.815ZM784.535 534.153V531.884H784.982C786.189 531.884 786.794 531.281 786.794 530.069V510.108H791.315V530.066C791.315 532.79 789.957 534.152 787.241 534.149L784.535 534.153ZM772.608 514.195H776.985L774.778 513.282L772.59 514.191L772.608 514.195ZM773.55 518.278L773.473 519.183H776.379V518.278H773.55ZM773.36 521.301L773.322 522.21H776.379V521.301H773.36ZM775.021 531.87H776.379V527.346H775.021V531.87Z" fill="white"/>
<path d="M800.678 534.149H796.15V521.787L793.884 526.437V520.54L798.866 509.653H802.033L800.675 512.451L800.678 534.149ZM808.834 534.149H804.302V519.634L801.135 525.976V517.365L804.76 509.653H809.288L807.93 512.377H817V514.646H808.848V518.274H816.547V520.54H808.848V524.168H816.547V526.437H808.848V534.149H808.834Z" fill="white"/>
<path d="M819.555 534.149V510.108H842.657V534.149H838.129V512.377H824.083V534.149H819.555ZM824.991 516.006V513.737H837.221V516.006H824.991ZM825.445 529.612V517.365H836.767V529.612H825.445ZM829.519 527.346H832.686V519.634H829.519V527.346Z" fill="white"/>
<path d="M855.644 512.377V510.108H867.424L864.704 518.743H868.782V521.012H864.25V529.629C864.25 532.657 863.042 534.169 860.626 534.167H857.91V531.898C859.117 531.898 859.722 531.144 859.722 529.629V520.994H855.19V518.743H860.172L862.174 512.401L855.644 512.377ZM846.144 534.149V531.88H847.956C849.767 531.88 850.673 530.974 850.676 529.161V528.255L845.24 526.895L845.591 514.649H844.8V512.38H845.63L845.704 509.657H849.782L849.708 512.38H854.764V527.008L856.126 527.36V529.626L854.764 529.273C854.738 532.526 853.53 534.152 851.14 534.149H846.144ZM850.676 514.646H849.655L849.353 525.645L850.676 525.997V514.646Z" fill="white"/>
<path d="M871.347 524.172V521.914H893.546V524.182H881.315L877.797 531.891H887.385L885.386 525.549H890.369L893.085 534.167H871.794L876.323 524.189L871.347 524.172ZM873.613 520.089V517.82H891.28V520.089H873.613ZM870.894 518.274V514.646L882.445 509.653L893.996 514.646V518.274L882.445 513.282L870.894 518.274Z" fill="white"/>
</g>
</g>
<defs>
<filter id="filter0_f_2139_2" x="-11" y="164.538" width="931.787" height="252.634" filterUnits="userSpaceOnUse" color-interpolation-filters="sRGB">
<feFlood flood-opacity="0" result="BackgroundImageFix"/>
<feBlend mode="normal" in="SourceGraphic" in2="BackgroundImageFix" result="shape"/>
<feGaussianBlur stdDeviation="27" result="effect1_foregroundBlur_2139_2"/>
</filter>
<filter id="filter1_f_2139_2" x="38.126" y="213.664" width="833.013" height="154.383" filterUnits="userSpaceOnUse" color-interpolation-filters="sRGB">
<feFlood flood-opacity="0" result="BackgroundImageFix"/>
<feBlend mode="normal" in="SourceGraphic" in2="BackgroundImageFix" result="shape"/>
<feGaussianBlur stdDeviation="3" result="effect1_foregroundBlur_2139_2"/>
</filter>
<filter id="filter2_f_2139_2" x="43.251" y="218.789" width="822.239" height="144.132" filterUnits="userSpaceOnUse" color-interpolation-filters="sRGB">
<feFlood flood-opacity="0" result="BackgroundImageFix"/>
<feBlend mode="normal" in="SourceGraphic" in2="BackgroundImageFix" result="shape"/>
<feGaussianBlur stdDeviation="1" result="effect1_foregroundBlur_2139_2"/>
</filter>
<linearGradient id="paint0_linear_2139_2" x1="452.985" y1="386.245" x2="140.08" y2="386.367" gradientUnits="userSpaceOnUse">
<stop stop-color="#8F0000"/>
<stop offset="1" stop-color="#4F0000"/>
</linearGradient>
<linearGradient id="paint1_linear_2139_2" x1="136.984" y1="158.321" x2="768.14" y2="157.839" gradientUnits="userSpaceOnUse">
<stop stop-color="#8F0000"/>
<stop offset="1" stop-color="#4F0000"/>
</linearGradient>
<linearGradient id="paint2_linear_2139_2" x1="455.235" y1="164.511" x2="768.14" y2="164.39" gradientUnits="userSpaceOnUse">
<stop stop-color="#8F0000"/>
<stop offset="1" stop-color="#4F0000"/>
</linearGradient>
<linearGradient id="paint3_linear_2139_2" x1="771.235" y1="392.436" x2="140.08" y2="392.917" gradientUnits="userSpaceOnUse">
<stop stop-color="#8F0000"/>
<stop offset="1" stop-color="#4F0000"/>
</linearGradient>
<clipPath id="clip0_2139_2">
<rect width="910" height="550" fill="white"/>
</clipPath>
<clipPath id="clip1_2139_2">
<rect width="457" height="64" fill="white" transform="translate(437 474)"/>
</clipPath>
</defs>
</svg>
